<mxfile host="app.diagrams.net" modified="2020-10-20T08:46:59.511Z" agent="5.0 (Windows NT 6.1; Win64; x64) AppleWebKit/537.36 (KHTML, like Gecko) Chrome/86.0.4240.75 Safari/537.36" etag="YL8nAiDbrISppjPBn3uo" version="13.8.0" type="github">
  <diagram id="C5RBs43oDa-KdzZeNtuy" name="Page-1">
    <mxGraphModel dx="868" dy="482" grid="1" gridSize="10" guides="1" tooltips="1" connect="1" arrows="1" fold="1" page="1" pageScale="1" pageWidth="827" pageHeight="1169" math="0" shadow="0">
      <root>
        <mxCell id="WIyWlLk6GJQsqaUBKTNV-0" />
        <mxCell id="WIyWlLk6GJQsqaUBKTNV-1" parent="WIyWlLk6GJQsqaUBKTNV-0" />
        <mxCell id="eOZRHbMCo8jEPbZn70VB-1" value="BOOK" style="swimlane;fontStyle=1;align=center;verticalAlign=top;childLayout=stackLayout;horizontal=1;startSize=26;horizontalStack=0;resizeParent=1;resizeParentMax=0;resizeLast=0;collapsible=1;marginBottom=0;" vertex="1" parent="WIyWlLk6GJQsqaUBKTNV-1">
          <mxGeometry x="320" y="40" width="320" height="290" as="geometry" />
        </mxCell>
        <mxCell id="eOZRHbMCo8jEPbZn70VB-2" value="-ISBN : String&#xa;&#xa;Â authorname: String&#xa;&#xa;#cd: Boolean" style="text;strokeColor=none;fillColor=none;align=left;verticalAlign=top;spacingLeft=4;spacingRight=4;overflow=hidden;rotatable=0;points=[[0,0.5],[1,0.5]];portConstraint=eastwest;" vertex="1" parent="eOZRHbMCo8jEPbZn70VB-1">
          <mxGeometry y="26" width="320" height="84" as="geometry" />
        </mxCell>
        <mxCell id="eOZRHbMCo8jEPbZn70VB-3" value="" style="line;strokeWidth=1;fillColor=none;align=left;verticalAlign=middle;spacingTop=-1;spacingLeft=3;spacingRight=3;rotatable=0;labelPosition=right;points=[];portConstraint=eastwest;" vertex="1" parent="eOZRHbMCo8jEPbZn70VB-1">
          <mxGeometry y="110" width="320" height="8" as="geometry" />
        </mxCell>
        <mxCell id="eOZRHbMCo8jEPbZn70VB-4" value="+SetISBN(isbn : String): void&#xa;&#xa;+GetISBN() : void&#xa;&#xa;+Setauthorname(authorname: String) : void&#xa;&#xa;+Getauthorname() :void&#xa;&#xa;+Setcd(Boolean): void&#xa;&#xa;+Getcd(Boolean): void" style="text;strokeColor=none;fillColor=none;align=left;verticalAlign=top;spacingLeft=4;spacingRight=4;overflow=hidden;rotatable=0;points=[[0,0.5],[1,0.5]];portConstraint=eastwest;" vertex="1" parent="eOZRHbMCo8jEPbZn70VB-1">
          <mxGeometry y="118" width="320" height="172" as="geometry" />
        </mxCell>
      </root>
    </mxGraphModel>
  </diagram>
</mxfile>
